<svg width="199" height="280" viewBox="0 0 199 280" fill="none" xmlns="http://www.w3.org/2000/svg">
<g opacity="0.1">
<path d="M3.31464 61.2989C6.81827 60.1432 9.57983 61.4084 12.0008 62.929C25.9788 71.6638 42.2196 76.6395 59.7621 79.7173C70.4676 81.5908 81.0028 83.9508 91.5381 86.2501C98.5453 87.7951 105.528 89.4374 111.562 92.6613C126.879 100.836 141.623 109.401 151.623 122.406C157.523 130.082 165.139 136.822 171.976 143.975L174.141 143.452C173.156 138.865 171.672 134.352 171.294 129.693C170.127 114.413 164.372 100.715 154.032 88.5737C145.723 78.6954 140.273 67.4424 133.582 56.6639C126.891 45.8732 123.898 33.7564 119.202 22.2602C117.402 17.8441 116.161 13.3064 115.297 8.67142C117.11 7.06559 118.971 5.50842 120.893 4.02424C121.076 5.50842 121.27 6.99259 121.514 8.4646C122.803 16.3599 126.562 23.793 128.995 31.5058C132.438 42.406 141.647 50.3987 148.728 59.3281C155.102 67.3451 160.406 75.7757 165.796 84.2306C166.428 85.2647 167.328 85.3864 168.071 84.7294C168.813 84.0725 169.895 83.3182 169.981 82.6126C171.148 73.075 171.526 63.6103 169.214 54.4011C168.29 50.6299 167.596 46.8464 166.793 43.0751C164.275 27.7832 157.681 13.72 150.066 0.216465C148.168 -3.14118 146.44 -6.55966 144.822 -10.0025C146.513 -10.7202 148.217 -11.4015 149.944 -12.0341C151.526 -8.39663 153.204 -4.78351 155.09 -1.24338C158.934 5.95853 161.526 13.6835 165.187 20.9706C170.041 30.6543 172.742 40.934 176.148 50.9948C175.71 36.7248 173.156 22.8563 168.484 9.4135C165.686 1.18969 161.173 -6.54749 157 -14.3455C159.092 -14.9538 161.221 -15.5134 163.363 -16C171.161 -0.805429 177.864 14.669 180.686 31.518C183.192 46.5058 182.779 61.3354 178.119 76.5056C174.494 88.1601 173.423 99.778 174.908 111.359C177.353 130.106 182.109 148.367 186.635 166.663C186.927 167.831 187.973 168.841 188.776 169.851C188.946 170.045 189.701 169.997 190.163 169.887C190.625 169.778 191.294 169.486 191.379 169.218C193.01 163.683 194.19 158.087 196.221 152.624C201.513 138.427 211.513 125.715 221.744 113.537C235.224 97.5031 248.922 81.5664 262.827 65.7393C266.379 61.676 270.345 57.8804 274.737 54.3646C279.214 50.8245 283.034 47.0654 286.014 42.8197C287.072 45.0946 288.021 47.4303 288.897 49.7904C288.836 49.8877 288.751 49.9729 288.703 50.0824C278.776 68.4886 261.756 82.9776 245.588 97.868C239.554 103.44 234.871 109.133 231.89 116.043C223.52 135.277 213.508 154.096 203.229 172.831C202.632 174.06 202.194 175.313 201.915 176.59C201.842 176.846 202.243 177.235 202.681 177.418C203.119 177.6 203.8 177.965 204.044 177.819C207.219 176.055 210.698 174.51 213.399 172.332C224.846 163.099 236.805 154.34 249.275 146.031C260.175 138.878 269.725 130.69 277.936 121.493C286.561 111.664 292.936 100.459 294.627 88.5372C294.992 85.9825 295.333 83.4277 295.6 80.873C296.05 85.3134 296.464 89.8997 296.72 92.9289C296.841 94.0724 296.951 95.2281 297.012 96.396C297.012 96.4082 297.012 96.4204 297.012 96.4204C297.279 101.433 296.963 106.627 296.136 111.98C292.887 122.576 285.783 131.566 276.513 140.009C274.165 142.101 273.35 142.077 269.445 139.741C268.654 139.279 267.742 139.145 266.72 139.316C266.136 139.474 265.296 140.958 265.479 141.116C268.946 143.975 267.304 146.578 263.849 148.829C254.712 154.778 245.613 160.763 236.233 166.432C223.618 173.926 211.878 182.259 201.014 191.432C197.073 194.814 196.282 197.941 197.073 202.138C198.508 209.802 203.034 216.468 204.92 223.926C206.866 231.772 210.078 239.133 213.898 246.274C210.905 249.583 207.876 252.855 204.847 256.091C186.866 238.938 164.202 227.405 135.504 223.33C125.784 221.943 116.222 219.887 106.003 220.228C103.849 220.276 101.793 220.021 99.8349 219.461C78.8617 213.61 55.3947 214.23 34.6892 207.661C33.6673 207.515 32.7549 207.746 31.9398 208.354C31.2464 209.084 31.0518 209.85 31.3437 210.678C40.0298 224.899 50.8083 237.77 65.9178 247.867C71.453 251.578 77.7425 254.254 84.7984 255.884C97.7059 258.889 110.553 262.052 124.299 262.952C129.567 263.281 134.579 264.132 140.066 263.159C143.132 262.624 146.38 263.135 149.543 263.159C159.056 263.269 168.606 263.135 178.058 263.548C184.226 263.816 190.406 264.132 196.404 265.021C192.827 268.731 189.25 272.393 185.674 275.994C177.414 275.872 169.129 275.787 160.735 276.48C147.45 277.587 134.056 277.539 121.392 274.643C93.0466 268.159 66.9762 258.865 48.0711 240.24C38.059 230.349 28.2172 220.422 21.1734 208.78C20.3097 207.284 19.6528 205.714 19.2026 204.072C18.2781 201.079 20.9301 198.719 24.5068 199.449C32.0736 200.994 39.5189 202.807 47.1101 204.303C53.6672 205.58 60.2122 207.308 66.9761 207.612C89.6889 208.67 111.927 211.322 133.703 215.556C146.964 218.111 159.798 221.043 171.599 226.189C180.637 230.118 189.725 234.011 196.002 240.824C196.647 241.456 197.353 242.04 198.131 242.575C198.484 242.879 198.898 243.123 199.372 243.305C199.822 243.463 200.698 243.682 200.832 243.524C201.392 242.952 202.219 242.162 202.097 241.602C199.591 225.884 191.598 211.712 187.645 196.371C186.708 192.722 184.311 189.413 185.066 185.362C185.431 183.354 184.153 182.028 182.487 181.116C171.878 175.264 160.747 170.24 147.389 168.768C117.56 165.459 92.5843 154.084 67.7182 142.479C56.9519 137.454 49.6283 129.316 40.2853 123.002C31.1613 116.846 24.3121 109.194 17.7428 101.36C9.73801 91.7002 3.95941 81.1163 0.419281 69.5957C-0.785095 65.8609 0.735596 62.1626 3.31464 61.2989ZM207.121 150.264C207.547 150.313 207.912 150.216 208.229 149.948C210.771 145.204 213.265 140.447 215.698 135.678C215.771 135.556 214.98 135.191 214.591 134.936C214.177 135.021 213.642 135.07 213.447 135.325C209.214 139.559 207.401 144.486 206.087 149.522C206.027 149.753 206.684 150.155 207.121 150.264ZM130.504 271.638C138.788 271.979 147.11 272.21 155.443 272.198C158.545 272.235 161.72 271.432 163.18 271.237C165.893 270.653 166.951 270.495 167.949 270.166C168.423 269.972 168.813 269.692 169.129 269.339C169.871 268.646 169.445 268.147 167.9 268.147C155.93 268.098 143.959 268.062 131.988 268.05C129.956 268.05 127.84 268.183 126.818 269.972C126.72 270.154 129.129 271.59 130.504 271.638ZM101.356 151.444C101.903 152.016 102.28 152.795 103.01 153.087C112.973 157.235 123.801 159.571 135.102 160.909C135.601 160.909 136.051 160.763 136.453 160.471C137.45 159.826 137.183 159.255 135.784 158.853C125.309 155.763 115.163 151.943 103.947 150.228C103.436 150.143 102.925 150.204 102.426 150.398C101.988 150.581 101.708 151.067 101.368 151.408L101.356 151.444ZM18.1321 79.1942C19.4095 86.0068 23.5092 91.8462 27.7306 97.3449C35.042 106.785 42.9617 115.848 51.4896 124.547C60.1757 133.488 71.6842 139.413 86.2583 141.347C108.01 144.206 128.265 150.337 148.375 156.615C156.44 159.109 163.715 163.026 171.392 166.323H171.404C173.545 162.88 171.684 160.143 170.321 157.661C167.572 152.77 164.774 147.795 160.966 143.5C153.265 134.826 145.735 126.067 137.243 117.941C124.774 105.909 109.373 97.5152 90.2607 93.7926C68.071 89.3888 46.368 83.963 25.1516 77.5397C23.6795 77.1626 22.171 76.8584 20.6382 76.6273C19.3365 76.384 17.8523 77.929 18.1321 79.1942Z" fill="white"/>
</g>
</svg>
