<svg width="282" height="79" viewBox="0 0 282 79" fill="none" xmlns="http://www.w3.org/2000/svg">
<path d="M105.96 77C105.373 77 104.893 76.84 104.52 76.52C104.173 76.2 104 75.72 104 75.08V62.96C104 62.4533 104.16 62.04 104.48 61.72C104.827 61.3733 105.253 61.2 105.76 61.2H112.36C112.653 61.2 112.867 61.2933 113 61.48C113.133 61.6667 113.2 61.88 113.2 62.12C113.2 62.3333 113.12 62.52 112.96 62.68C112.8 62.84 112.6 62.92 112.36 62.92H107.32C106.387 62.92 105.92 63.3867 105.92 64.32V66.76C105.92 67.6933 106.387 68.16 107.32 68.16H111.8C112.36 68.16 112.64 68.44 112.64 69C112.64 69.5067 112.36 69.76 111.8 69.76H107.32C106.387 69.76 105.92 70.2267 105.92 71.16V73.88C105.92 74.8133 106.387 75.28 107.32 75.28H112.56C112.88 75.28 113.093 75.3733 113.2 75.56C113.333 75.7467 113.4 75.9467 113.4 76.16C113.4 76.3467 113.333 76.5333 113.2 76.72C113.067 76.9067 112.853 77 112.56 77H105.96ZM121.657 77.4C120.484 77.4 119.457 77.1333 118.577 76.6C117.697 76.04 117.017 75.3067 116.537 74.4C116.057 73.4667 115.817 72.44 115.817 71.32C115.817 70.1733 116.071 69.16 116.577 68.28C117.111 67.3733 117.817 66.6667 118.697 66.16C119.577 65.6533 120.564 65.4 121.657 65.4C123.284 65.4 124.591 65.76 125.577 66.48C125.817 66.64 125.937 66.88 125.937 67.2C125.937 67.7333 125.671 68 125.137 68C125.084 68 125.017 68 124.937 68C124.857 67.9733 124.777 67.9467 124.697 67.92C124.351 67.7067 123.924 67.4933 123.417 67.28C122.937 67.0667 122.391 66.96 121.777 66.96C120.551 66.96 119.551 67.3867 118.777 68.24C118.004 69.0667 117.617 70.1067 117.617 71.36C117.617 72.5867 117.977 73.6 118.697 74.4C119.444 75.1733 120.391 75.6267 121.537 75.76C122.257 75.7867 122.951 75.6533 123.617 75.36C124.311 75.0667 124.884 74.7067 125.337 74.28C125.497 74.1467 125.671 74.08 125.857 74.08C126.071 74.08 126.244 74.1733 126.377 74.36C126.537 74.52 126.617 74.7067 126.617 74.92C126.617 75.1333 126.497 75.3867 126.257 75.68C125.671 76.2133 125.004 76.64 124.257 76.96C123.511 77.2533 122.644 77.4 121.657 77.4ZM134.705 77.4C133.585 77.4 132.585 77.1333 131.705 76.6C130.825 76.0667 130.118 75.3467 129.585 74.44C129.078 73.5067 128.825 72.4667 128.825 71.32C128.825 70.1733 129.078 69.16 129.585 68.28C130.118 67.4 130.825 66.7067 131.705 66.2C132.585 65.6667 133.585 65.4 134.705 65.4C135.825 65.4 136.825 65.6667 137.705 66.2C138.612 66.7067 139.318 67.4 139.825 68.28C140.358 69.16 140.625 70.1733 140.625 71.32C140.625 72.4667 140.358 73.5067 139.825 74.44C139.318 75.3467 138.612 76.0667 137.705 76.6C136.825 77.1333 135.825 77.4 134.705 77.4ZM134.705 75.76C135.958 75.76 136.958 75.3333 137.705 74.48C138.452 73.6267 138.825 72.5733 138.825 71.32C138.825 70.12 138.452 69.1067 137.705 68.28C136.958 67.4533 135.958 67.04 134.705 67.04C133.478 67.04 132.492 67.4533 131.745 68.28C131.025 69.1067 130.665 70.12 130.665 71.32C130.665 72.5733 131.025 73.6267 131.745 74.48C132.492 75.3333 133.478 75.76 134.705 75.76ZM153.812 77C153.225 77 152.745 76.84 152.372 76.52C152.025 76.2 151.852 75.72 151.852 75.08V62.96C151.852 62.4533 152.012 62.04 152.332 61.72C152.678 61.3733 153.105 61.2 153.612 61.2H160.212C160.505 61.2 160.718 61.2933 160.852 61.48C160.985 61.6667 161.052 61.88 161.052 62.12C161.052 62.3333 160.972 62.52 160.812 62.68C160.652 62.84 160.452 62.92 160.212 62.92H155.172C154.238 62.92 153.772 63.3867 153.772 64.32V66.76C153.772 67.6933 154.238 68.16 155.172 68.16H159.652C160.212 68.16 160.492 68.44 160.492 69C160.492 69.5067 160.212 69.76 159.652 69.76H155.172C154.238 69.76 153.772 70.2267 153.772 71.16V73.88C153.772 74.8133 154.238 75.28 155.172 75.28H160.412C160.732 75.28 160.945 75.3733 161.052 75.56C161.185 75.7467 161.252 75.9467 161.252 76.16C161.252 76.3467 161.185 76.5333 161.052 76.72C160.918 76.9067 160.705 77 160.412 77H153.812ZM163.829 77.44C163.562 77.44 163.335 77.3467 163.149 77.16C162.962 76.9733 162.869 76.76 162.869 76.52C162.869 76.3067 162.949 76.12 163.109 75.96L167.029 71.8C167.135 71.6933 167.189 71.5467 167.189 71.36C167.189 71.2267 167.149 71.1067 167.069 71L163.309 66.84C163.149 66.68 163.069 66.4933 163.069 66.28C163.069 66.04 163.149 65.84 163.309 65.68C163.495 65.4933 163.722 65.4 163.989 65.4C164.229 65.4 164.455 65.4933 164.669 65.68L167.989 69.6C168.149 69.76 168.309 69.84 168.469 69.84C168.682 69.84 168.842 69.76 168.949 69.6L172.269 65.68C172.482 65.4933 172.709 65.4 172.949 65.4C173.215 65.4 173.429 65.4933 173.589 65.68C173.775 65.84 173.869 66.04 173.869 66.28C173.869 66.4933 173.789 66.68 173.629 66.84L169.869 71C169.789 71.1067 169.749 71.2267 169.749 71.36C169.749 71.5467 169.802 71.6933 169.909 71.8L173.829 75.96C173.989 76.12 174.069 76.3067 174.069 76.52C174.069 76.76 173.975 76.9733 173.789 77.16C173.602 77.3467 173.375 77.44 173.109 77.44C172.842 77.44 172.615 77.3333 172.429 77.12L168.949 73.12C168.842 72.96 168.682 72.88 168.469 72.88C168.309 72.88 168.149 72.96 167.989 73.12L164.509 77.12C164.322 77.3333 164.095 77.44 163.829 77.44ZM180.541 77.4C179.448 77.4 178.594 77.08 177.981 76.44C177.368 75.7733 177.061 74.8667 177.061 73.72V67.8C177.061 67.5333 176.928 67.4 176.661 67.4H175.661C175.448 67.4 175.261 67.32 175.101 67.16C174.941 67 174.861 66.8133 174.861 66.6C174.861 66.3867 174.941 66.2 175.101 66.04C175.261 65.88 175.448 65.8 175.661 65.8H176.661C176.928 65.8 177.061 65.6667 177.061 65.4V61.68C177.061 61.3867 177.154 61.1733 177.341 61.04C177.528 60.88 177.728 60.8 177.941 60.8C178.181 60.8 178.394 60.88 178.581 61.04C178.768 61.1733 178.861 61.3867 178.861 61.68V65.4C178.861 65.6667 178.994 65.8 179.261 65.8H182.061C182.274 65.8 182.461 65.88 182.621 66.04C182.781 66.2 182.861 66.3867 182.861 66.6C182.861 66.8133 182.781 67 182.621 67.16C182.461 67.32 182.274 67.4 182.061 67.4H179.261C178.994 67.4 178.861 67.5333 178.861 67.8V73.6C178.861 74.9867 179.501 75.68 180.781 75.68C181.101 75.68 181.354 75.64 181.541 75.56C181.754 75.48 181.928 75.44 182.061 75.44C182.301 75.44 182.488 75.5333 182.621 75.72C182.781 75.9067 182.861 76.1067 182.861 76.32C182.861 76.7467 182.661 77.0133 182.261 77.12C181.994 77.2267 181.701 77.2933 181.381 77.32C181.088 77.3733 180.808 77.4 180.541 77.4ZM191.04 77.4C189.173 77.4 187.68 76.8533 186.56 75.76C185.44 74.64 184.88 73.1067 184.88 71.16C184.88 70.0933 185.12 69.1333 185.6 68.28C186.08 67.4 186.746 66.7067 187.6 66.2C188.48 65.6667 189.506 65.4 190.68 65.4C191.906 65.4 192.92 65.6667 193.72 66.2C194.52 66.7067 195.106 67.3467 195.48 68.12C195.88 68.8667 196.08 69.6133 196.08 70.36C196.08 70.8133 195.973 71.1867 195.76 71.48C195.573 71.7733 195.293 71.92 194.92 71.92H187.24C187.08 71.92 186.96 71.9333 186.88 71.96C186.826 71.9867 186.8 72.08 186.8 72.24C186.8 72.6933 186.946 73.1867 187.24 73.72C187.533 74.2533 187.946 74.72 188.48 75.12C189.04 75.4933 189.68 75.7067 190.4 75.76C191.173 75.8133 191.933 75.7333 192.68 75.52C193.426 75.3067 194.093 74.9733 194.68 74.52C194.813 74.4133 194.96 74.36 195.12 74.36C195.306 74.36 195.48 74.44 195.64 74.6C195.826 74.76 195.92 74.96 195.92 75.2C195.92 75.44 195.8 75.68 195.56 75.92C194.92 76.4267 194.2 76.8 193.4 77.04C192.6 77.28 191.813 77.4 191.04 77.4ZM193.56 70.52C193.773 70.52 193.933 70.44 194.04 70.28C194.146 70.0933 194.173 69.8667 194.12 69.6C194.04 68.9067 193.68 68.2933 193.04 67.76C192.4 67.2 191.613 66.92 190.68 66.92C189.986 66.92 189.346 67.0933 188.76 67.44C188.2 67.76 187.746 68.1733 187.4 68.68C187.053 69.1867 186.88 69.72 186.88 70.28C186.88 70.4133 187 70.48 187.24 70.48L193.56 70.52ZM208.993 77.4C208.727 77.4 208.5 77.3067 208.313 77.12C208.153 76.96 208.073 76.7467 208.073 76.48V71.04C208.073 69.7067 207.793 68.72 207.233 68.08C206.673 67.44 205.887 67.12 204.873 67.12C203.94 67.12 203.167 67.3467 202.553 67.8C201.967 68.2267 201.54 68.7733 201.273 69.44C201.007 70.08 200.873 70.72 200.873 71.36V76.48C200.873 76.7467 200.793 76.96 200.633 77.12C200.473 77.3067 200.26 77.4 199.993 77.4C199.727 77.4 199.5 77.3067 199.313 77.12C199.153 76.96 199.073 76.7467 199.073 76.48V66.48C199.073 66.1867 199.167 65.9733 199.353 65.84C199.54 65.68 199.753 65.6 199.993 65.6C200.207 65.6 200.407 65.68 200.593 65.84C200.78 65.9733 200.873 66.1867 200.873 66.48V67.36C201.407 66.7467 202.047 66.2667 202.793 65.92C203.54 65.5733 204.313 65.4 205.113 65.4C206.473 65.4 207.607 65.8533 208.513 66.76C209.42 67.64 209.873 69.0133 209.873 70.88V76.48C209.873 76.7467 209.793 76.96 209.633 77.12C209.473 77.3067 209.26 77.4 208.993 77.4ZM217.172 77.4C215.359 77.4 213.892 76.88 212.772 75.84C212.586 75.6533 212.492 75.44 212.492 75.2C212.492 74.9333 212.599 74.72 212.812 74.56C213.026 74.4 213.199 74.32 213.332 74.32C213.546 74.32 213.812 74.4533 214.132 74.72C214.532 75.0667 214.986 75.3333 215.492 75.52C216.026 75.7067 216.626 75.8 217.292 75.8C218.226 75.8 218.919 75.6267 219.372 75.28C219.852 74.9333 220.092 74.4667 220.092 73.88C220.092 73.2667 219.839 72.8267 219.332 72.56C218.826 72.2667 218.106 72.0667 217.172 71.96C216.666 71.9067 216.052 71.8133 215.332 71.68C214.639 71.5467 214.026 71.28 213.492 70.88C212.959 70.4533 212.692 69.8133 212.692 68.96C212.692 67.8667 213.092 67 213.892 66.36C214.692 65.72 215.812 65.4 217.252 65.4C218.079 65.4 218.852 65.5067 219.572 65.72C220.292 65.9067 220.812 66.1467 221.132 66.44C221.346 66.6 221.452 66.8133 221.452 67.08C221.452 67.2667 221.372 67.4667 221.212 67.68C221.052 67.8667 220.866 67.96 220.652 67.96C220.546 67.96 220.439 67.9333 220.332 67.88C220.226 67.8267 220.119 67.7733 220.012 67.72C219.532 67.4533 219.092 67.2667 218.692 67.16C218.319 67.0533 217.866 67 217.332 67C216.479 67 215.786 67.16 215.252 67.48C214.746 67.7733 214.492 68.2267 214.492 68.84C214.492 69.2667 214.666 69.5867 215.012 69.8C215.386 69.9867 216.106 70.1467 217.172 70.28C217.546 70.3333 217.999 70.4133 218.532 70.52C219.066 70.6267 219.586 70.8 220.092 71.04C220.599 71.2533 221.026 71.5867 221.372 72.04C221.719 72.4667 221.892 73.04 221.892 73.76C221.892 74.8533 221.479 75.7333 220.652 76.4C219.826 77.0667 218.666 77.4 217.172 77.4ZM226.014 77.4C225.747 77.4 225.52 77.3067 225.334 77.12C225.174 76.96 225.094 76.7467 225.094 76.48V66.28C225.094 65.9867 225.187 65.7733 225.374 65.64C225.56 65.48 225.774 65.4 226.014 65.4C226.227 65.4 226.427 65.48 226.614 65.64C226.8 65.7733 226.894 65.9867 226.894 66.28V76.48C226.894 76.7467 226.814 76.96 226.654 77.12C226.494 77.3067 226.28 77.4 226.014 77.4ZM225.894 62.76C225.467 62.76 225.12 62.64 224.854 62.4C224.614 62.1333 224.494 61.8 224.494 61.4C224.494 60.9733 224.614 60.64 224.854 60.4C225.12 60.1333 225.467 60 225.894 60C226.32 60 226.654 60.1333 226.894 60.4C227.16 60.64 227.294 60.9733 227.294 61.4C227.294 61.8 227.16 62.1333 226.894 62.4C226.654 62.64 226.32 62.76 225.894 62.76ZM235.76 77.4C234.64 77.4 233.64 77.1333 232.76 76.6C231.88 76.0667 231.173 75.3467 230.64 74.44C230.133 73.5067 229.88 72.4667 229.88 71.32C229.88 70.1733 230.133 69.16 230.64 68.28C231.173 67.4 231.88 66.7067 232.76 66.2C233.64 65.6667 234.64 65.4 235.76 65.4C236.88 65.4 237.88 65.6667 238.76 66.2C239.666 66.7067 240.373 67.4 240.88 68.28C241.413 69.16 241.68 70.1733 241.68 71.32C241.68 72.4667 241.413 73.5067 240.88 74.44C240.373 75.3467 239.666 76.0667 238.76 76.6C237.88 77.1333 236.88 77.4 235.76 77.4ZM235.76 75.76C237.013 75.76 238.013 75.3333 238.76 74.48C239.506 73.6267 239.88 72.5733 239.88 71.32C239.88 70.12 239.506 69.1067 238.76 68.28C238.013 67.4533 237.013 67.04 235.76 67.04C234.533 67.04 233.546 67.4533 232.8 68.28C232.08 69.1067 231.72 70.12 231.72 71.32C231.72 72.5733 232.08 73.6267 232.8 74.48C233.546 75.3333 234.533 75.76 235.76 75.76ZM254.618 77.4C254.352 77.4 254.125 77.3067 253.938 77.12C253.778 76.96 253.698 76.7467 253.698 76.48V71.04C253.698 69.7067 253.418 68.72 252.858 68.08C252.298 67.44 251.512 67.12 250.498 67.12C249.565 67.12 248.792 67.3467 248.178 67.8C247.592 68.2267 247.165 68.7733 246.898 69.44C246.632 70.08 246.498 70.72 246.498 71.36V76.48C246.498 76.7467 246.418 76.96 246.258 77.12C246.098 77.3067 245.885 77.4 245.618 77.4C245.352 77.4 245.125 77.3067 244.938 77.12C244.778 76.96 244.698 76.7467 244.698 76.48V66.48C244.698 66.1867 244.792 65.9733 244.978 65.84C245.165 65.68 245.378 65.6 245.618 65.6C245.832 65.6 246.032 65.68 246.218 65.84C246.405 65.9733 246.498 66.1867 246.498 66.48V67.36C247.032 66.7467 247.672 66.2667 248.418 65.92C249.165 65.5733 249.938 65.4 250.738 65.4C252.098 65.4 253.232 65.8533 254.138 66.76C255.045 67.64 255.498 69.0133 255.498 70.88V76.48C255.498 76.7467 255.418 76.96 255.258 77.12C255.098 77.3067 254.885 77.4 254.618 77.4Z" fill="white"/>
<path d="M32.3359 0.0676271C30.4175 0.413794 28.6434 1.28642 27.3309 2.51965C26.6457 3.16871 25.8596 4.26491 25.3476 5.28177C24.0855 7.80591 23.2562 12.5224 23.487 15.8471C23.7249 19.2511 24.7418 21.7824 26.6313 23.6647C28.2323 25.2657 30.1002 26.0735 32.2277 26.0735C34.3335 26.0735 36.2086 25.3379 37.6221 23.9532C38.9347 22.6767 39.7568 21.155 40.2905 19.0347C40.7304 17.3039 40.7737 16.7918 40.7665 13.7773C40.7665 10.3877 40.6583 9.21222 40.1607 7.24339C39.2231 3.50767 37.1029 0.817656 34.5715 0.146957C33.9874 -0.011703 32.9489 -0.0477621 32.3359 0.0676271Z" fill="white"/>
<path d="M57.0364 1.41619C56.4666 1.48831 55.4714 1.7912 54.981 2.03641C53.9497 2.56287 52.7814 3.63743 52.0458 4.73363C50.4087 7.17122 49.3197 11.3613 49.3197 15.1836C49.3197 17.1019 49.5289 18.4289 50.0698 19.9866C50.9135 22.4026 52.4569 24.2128 54.5483 25.244C55.594 25.7633 56.5171 26.0013 57.6638 26.0518C61.0534 26.2104 63.8155 24.6094 65.33 21.6021C66.4478 19.3808 66.8445 16.662 66.6353 12.6594C66.5127 10.2723 66.2891 8.93812 65.7771 7.4597C64.3275 3.28405 60.9091 0.918574 57.0364 1.41619Z" fill="white"/>
<path d="M79.1333 21.4579C76.1693 22.1286 74.3519 24.5445 73.7317 28.6336C73.674 29.0303 73.573 30.4077 73.5153 31.6987C73.4576 32.9896 73.3423 34.8647 73.2629 35.8743C73.0105 39.0836 73.0826 40.9154 73.5153 42.2784C74.3591 44.9107 76.6525 46.1944 80.5252 46.1944C82.083 46.1944 83.1936 45.9925 84.297 45.5165C86.2658 44.6655 87.8092 42.8698 88.5736 40.5331C89.8501 36.6604 89.2804 31.1217 87.1673 26.7225C86.237 24.797 84.9244 23.1022 83.6912 22.2584C83.2152 21.9266 82.2489 21.4867 81.7873 21.393C81.2031 21.2704 79.8113 21.3064 79.1333 21.4579Z" fill="white"/>
<path d="M8.60894 21.8473C6.48146 22.3449 4.64244 23.7512 3.11354 26.0518C1.9308 27.8476 1.1375 29.8957 0.704788 32.2828C0.510069 33.3285 0.437951 36.1051 0.560552 37.3744C0.964414 41.413 2.31302 44.2761 4.49821 45.7257C5.85403 46.6199 7.32524 46.9517 9.2508 46.7786C11.4792 46.5767 13.1957 45.8627 14.5154 44.6078C16.0227 43.1727 16.7944 41.2976 17.0107 38.5427C17.1477 36.8695 16.8232 31.778 16.4626 29.8597C15.9289 26.9821 14.9121 24.7393 13.5202 23.3618C12.8423 22.6911 12.1716 22.2728 11.3494 21.9916C10.6427 21.7536 9.3157 21.6815 8.60894 21.8473Z" fill="white"/>
<path d="M52.6083 35.0954C51.9953 35.1748 50.5024 35.5137 49.4279 35.8094C45.3893 36.9128 44.1344 37.122 41.9997 37.0643C40.7449 37.0354 40.204 36.9777 37.4563 36.6243C35.574 36.3719 35.3071 36.3575 33.4898 36.3575C31.6291 36.3503 31.5065 36.3647 30.7493 36.545C30.3166 36.646 29.6747 36.8335 29.3285 36.9633C27.064 37.7854 25.2827 39.8769 24.7635 42.3217C24.5976 43.0861 24.6264 44.4636 24.8356 45.9492C25.088 47.6801 25.1241 48.5383 24.9942 49.2594C24.5471 51.697 22.7009 53.3702 18.7055 54.9424C14.4506 56.6155 13.8087 56.904 12.5827 57.7261C11.0682 58.7286 9.59701 60.4089 8.92631 61.8801C7.98156 63.9643 8.34936 66.2 10.1379 69.2362C11.3062 71.2267 13.4193 73.5056 15.5323 75.0633C15.7343 75.2076 15.929 75.3518 15.965 75.3879C16.0804 75.4744 16.78 75.9215 17.3713 76.2894C18.2873 76.8519 20.0974 77.6812 21.2297 78.0635C24.0856 79.0154 25.6794 78.9361 27.6482 77.7461C28.153 77.4432 28.9463 76.9024 29.1627 76.7148C29.4295 76.4913 30.843 75.5898 31.2541 75.3807C32.6893 74.6667 34.0667 74.5729 35.6461 75.0922C36.288 75.3013 37.6438 75.9792 38.5741 76.5562C38.9131 76.7653 39.2881 76.9889 39.4035 77.061C39.5261 77.1259 39.829 77.3062 40.0814 77.4577C41.9276 78.5467 43.6296 79.0154 45.1585 78.8568C46.3845 78.7342 47.4879 78.3375 49.2115 77.4216C52.94 75.4311 53.8487 75.1282 55.8825 75.2076C57.1013 75.2581 57.8008 75.3879 59.5316 75.9143C62.777 76.8951 63.5486 77.061 64.8395 77.061C66.2386 77.061 67.0608 76.8158 68.2147 76.0586C69.1378 75.4528 70.5874 73.8662 71.6403 72.3012C72.3398 71.2627 74.3015 67.9885 74.6837 67.2169C75.8304 64.9307 75.8448 63.0917 74.727 61.7143C74.4457 61.3753 73.7966 60.8993 73.299 60.6902C72.8951 60.5171 71.734 60.2431 70.3782 60.0051C68.6185 59.6877 67.6089 59.2767 66.4045 58.3752C64.753 57.1348 62.777 54.6683 62.1279 53.0529C61.9404 52.5841 61.9115 52.3894 61.8827 51.6754C61.8539 50.7884 61.9404 50.2979 62.4452 48.4661C62.9212 46.7209 63.0438 45.906 63.051 44.4996C63.0582 43.3097 63.0438 43.1438 62.8635 42.4731C62.0918 39.6245 59.9067 36.9705 57.3104 35.7373C56.2142 35.2252 55.5724 35.081 54.2237 35.0522C53.6107 35.0377 52.8823 35.0594 52.6083 35.0954Z" fill="white"/>
<path fill-rule="evenodd" clip-rule="evenodd" d="M111.24 50.6C109.16 50.6 107.453 49.96 106.12 48.68C104.787 47.4 104.12 45.48 104.12 42.92V32.76L104.12 31.8663L104.12 31.5L104.12 31L104.12 30.0745L104.12 29.5637L104.12 29.3422V28.5V27.6362V26.2V19.48C104.12 18.7333 104.36 18.1467 104.84 17.72C105.373 17.24 106.013 17 106.76 17C107.56 17 108.2 17.24 108.68 17.72C109.213 18.1467 109.48 18.7333 109.48 19.48V26.2C109.48 26.7333 109.747 27 110.28 27H114.6C115.24 27 115.8 27.24 116.28 27.72C116.76 28.2 117 28.8133 117 29.56C117 30.2533 116.76 30.84 116.28 31.32C115.853 31.7467 115.267 31.96 114.52 31.96H110.28C109.747 31.96 109.48 32.2267 109.48 32.76V42.2C109.48 44.44 110.387 45.56 112.2 45.56C112.733 45.56 113.293 45.48 113.88 45.32C114.467 45.16 114.867 45.08 115.08 45.08C115.827 45.08 116.387 45.32 116.76 45.8C117.187 46.28 117.4 46.84 117.4 47.48C117.4 47.96 117.267 48.44 117 48.92C116.733 49.3467 116.307 49.6667 115.72 49.88C115.133 50.0933 114.387 50.2533 113.48 50.36C112.627 50.52 111.88 50.6 111.24 50.6ZM137.979 28.84C137.979 28.0933 138.219 27.48 138.699 27C139.232 26.4667 139.899 26.2 140.699 26.2C141.445 26.2 142.085 26.4667 142.619 27C143.152 27.48 143.419 28.0933 143.419 28.84V40.12C143.419 42.52 142.885 44.4933 141.819 46.04C140.752 47.5867 139.365 48.7333 137.659 49.48C135.952 50.2267 134.139 50.6 132.219 50.6C130.299 50.6 128.485 50.2267 126.779 49.48C125.072 48.7333 123.685 47.5867 122.619 46.04C121.552 44.4933 121.019 42.52 121.019 40.12V28.84C121.019 28.0933 121.259 27.48 121.739 27C122.272 26.4667 122.939 26.2 123.739 26.2C124.485 26.2 125.125 26.4667 125.659 27C126.192 27.48 126.459 28.0933 126.459 28.84V40.12C126.459 42.0933 127.045 43.5067 128.219 44.36C129.392 45.2133 130.725 45.64 132.219 45.64C133.765 45.64 135.099 45.2133 136.219 44.36C137.392 43.5067 137.979 42.0933 137.979 40.12V28.84ZM154.827 48.12V37.96C154.827 35.9333 155.307 34.3333 156.267 33.16C157.281 31.9867 158.561 31.4 160.107 31.4C160.694 31.4 161.174 31.4533 161.547 31.56C161.974 31.6667 162.374 31.72 162.747 31.72C163.601 31.72 164.241 31.4533 164.667 30.92C165.147 30.3333 165.387 29.6933 165.387 29C165.387 28.4133 165.227 27.88 164.907 27.4C164.587 26.92 164.107 26.6 163.467 26.44C162.827 26.28 162.187 26.2 161.547 26.2C160.214 26.2 158.934 26.52 157.707 27.16C156.534 27.8 155.574 28.6267 154.827 29.64V29.32C154.827 28.4133 154.534 27.7467 153.947 27.32C153.414 26.84 152.801 26.6 152.107 26.6C151.414 26.6 150.774 26.84 150.187 27.32C149.654 27.7467 149.387 28.4133 149.387 29.32V48.12C149.387 48.92 149.654 49.5333 150.187 49.96C150.774 50.3867 151.414 50.6 152.107 50.6C152.801 50.6 153.414 50.3867 153.947 49.96C154.534 49.5333 154.827 48.92 154.827 48.12ZM173.797 49.8C172.677 49.8 171.664 49.4267 170.757 48.68C169.85 47.88 169.397 46.7867 169.397 45.4V21.96C169.397 20.7333 169.797 19.7467 170.597 19C171.45 18.2 172.437 17.8 173.557 17.8H181.077C183.584 17.8 185.797 18.4933 187.717 19.88C189.637 21.2133 190.597 23.1333 190.597 25.64C190.597 26.9733 190.304 28.2267 189.717 29.4C189.184 30.52 188.464 31.3733 187.557 31.96C189.104 32.4933 190.33 33.48 191.237 34.92C192.144 36.3067 192.597 37.96 192.597 39.88C192.597 43.08 191.637 45.5333 189.717 47.24C187.797 48.9467 185.397 49.8 182.517 49.8H173.797ZM176.917 44.92H182.517C184.224 44.92 185.45 44.4133 186.197 43.4C186.997 42.3333 187.397 41.1867 187.397 39.96C187.397 38.84 187.024 37.7733 186.277 36.76C185.53 35.7467 184.384 35.24 182.837 35.24H176.597C175.424 35.24 174.837 35.8533 174.837 37.08V42.84C174.837 44.2267 175.53 44.92 176.917 44.92ZM176.597 30.76H181.237C182.57 30.76 183.584 30.3067 184.277 29.4C184.97 28.4933 185.317 27.5333 185.317 26.52C185.317 25.56 184.97 24.68 184.277 23.88C183.637 23.0267 182.624 22.6 181.237 22.6H176.997C175.557 22.6 174.837 23.2933 174.837 24.68V28.92C174.837 30.1467 175.424 30.76 176.597 30.76ZM204.865 48.44C207.425 49.88 210.252 50.6 213.345 50.6C216.438 50.6 219.212 49.88 221.665 48.44C224.172 46.9467 226.145 44.9467 227.585 42.44C229.078 39.88 229.825 37 229.825 33.8C229.825 30.44 229.078 27.5067 227.585 25C226.145 22.4933 224.172 20.5467 221.665 19.16C219.212 17.72 216.438 17 213.345 17C210.252 17 207.425 17.72 204.865 19.16C202.358 20.5467 200.358 22.4933 198.865 25C197.372 27.5067 196.625 30.44 196.625 33.8C196.625 37 197.372 39.88 198.865 42.44C200.358 44.9467 202.358 46.9467 204.865 48.44ZM218.945 44.12C217.345 45.1867 215.478 45.72 213.345 45.72C211.212 45.72 209.318 45.1867 207.665 44.12C206.012 43 204.732 41.5333 203.825 39.72C202.918 37.9067 202.465 35.9333 202.465 33.8C202.465 30.3867 203.478 27.56 205.505 25.32C207.532 23.08 210.145 21.96 213.345 21.96C216.492 21.96 219.078 23.08 221.105 25.32C223.132 27.56 224.145 30.3867 224.145 33.8C224.145 35.9333 223.692 37.9067 222.785 39.72C221.878 41.5333 220.598 43 218.945 44.12ZM244.231 50.6C243.378 50.6 242.685 50.36 242.151 49.88C241.671 49.4 241.431 48.7867 241.431 48.04V24.76C241.431 23.4267 240.738 22.76 239.351 22.76H234.311C232.658 22.76 231.831 21.9333 231.831 20.28C231.831 18.6267 232.658 17.8 234.311 17.8H254.071C254.818 17.8 255.431 18.04 255.911 18.52C256.391 18.9467 256.631 19.5333 256.631 20.28C256.631 21.0267 256.391 21.64 255.911 22.12C255.431 22.5467 254.818 22.76 254.071 22.76H249.111C247.725 22.76 247.031 23.4267 247.031 24.76V48.04C247.031 48.7867 246.765 49.4 246.231 49.88C245.751 50.36 245.085 50.6 244.231 50.6ZM262.766 49C264.58 50.0667 266.633 50.6 268.926 50.6C270.42 50.6 271.753 50.3333 272.926 49.8C274.1 49.32 275.113 48.6533 275.966 47.8V48.12C275.966 48.92 276.233 49.5333 276.766 49.96C277.353 50.3867 277.993 50.6 278.686 50.6C279.38 50.6 279.993 50.3867 280.526 49.96C281.113 49.5333 281.406 48.92 281.406 48.12V29.32C281.406 28.4133 281.113 27.7467 280.526 27.32C279.993 26.84 279.38 26.6 278.686 26.6C278.046 26.6 277.46 26.8133 276.926 27.24C276.393 27.6133 276.073 28.1733 275.966 28.92C275.113 28.12 274.1 27.48 272.926 27C271.753 26.4667 270.42 26.2 268.926 26.2C266.633 26.2 264.58 26.7333 262.766 27.8C260.953 28.8133 259.54 30.2267 258.526 32.04C257.513 33.8533 257.006 35.9067 257.006 38.2C257.006 40.5467 257.513 42.68 258.526 44.6C259.54 46.4667 260.953 47.9333 262.766 49ZM274.206 43.64C273.033 44.9733 271.433 45.64 269.406 45.64C267.326 45.64 265.646 44.9733 264.366 43.64C263.086 42.2533 262.446 40.44 262.446 38.2C262.446 36.0667 263.086 34.36 264.366 33.08C265.646 31.8 267.326 31.16 269.406 31.16C271.433 31.16 273.033 31.8 274.206 33.08C275.38 34.36 275.966 36.0667 275.966 38.2C275.966 40.44 275.38 42.2533 274.206 43.64Z" fill="white"/>
</svg>
